<?xml version="1.0" standalone="no"?>
<!DOCTYPE svg PUBLIC "-//W3C//DTD SVG 20010904//EN"
 "http://www.w3.org/TR/2001/REC-SVG-20010904/DTD/svg10.dtd">
<svg version="1.0" xmlns="http://www.w3.org/2000/svg"
 width="1080.000000pt" height="1080.000000pt" viewBox="0 0 1080.000000 1080.000000"
 preserveAspectRatio="xMidYMid meet">

<g transform="translate(0.000000,1080.000000) scale(0.100000,-0.100000)"
fill="#FFFFFF" stroke="none">
<path d="M4203 7288 c-17 -18 -137 -217 -268 -443 -130 -225 -253 -427 -273
-448 -20 -20 -59 -49 -86 -62 l-50 -25 -525 0 -526 0 -50 -24 c-27 -13 -67
-41 -87 -62 -52 -55 -779 -1319 -785 -1365 -4 -28 0 -42 16 -58 l21 -21 1012
0 1013 0 51 24 c28 13 67 39 86 58 32 33 897 1517 934 1603 9 22 17 65 17 95
0 54 -4 63 -203 400 -112 190 -208 348 -214 352 -23 16 -53 7 -83 -24z m-737
-1143 c21 -21 24 -32 19 -56 -10 -46 -582 -1039 -623 -1082 -71 -73 -179 -107
-230 -71 -50 35 -42 52 271 598 160 281 305 526 321 544 72 82 194 115 242 67z"/>
<path d="M4772 6284 c-28 -14 -64 -40 -80 -58 -16 -18 -90 -138 -165 -267
-136 -234 -154 -277 -129 -316 19 -30 70 -33 577 -33 l514 0 15 -22 c34 -48
42 -31 -198 -447 -118 -205 -146 -261 -146 -292 0 -70 -5 -69 430 -69 l386 0
50 25 c27 13 66 42 85 62 34 36 731 1230 772 1321 20 47 17 80 -9 106 -13 14
-64 16 -407 16 -372 0 -393 -1 -432 -20 -75 -36 -112 -80 -210 -250 -104 -177
-145 -229 -212 -261 -50 -24 -128 -29 -148 -8 -41 41 -28 76 107 309 83 141
90 169 55 204 l-26 26 -389 0 -388 0 -52 -26z"/>
<path d="M7114 6286 c-28 -13 -66 -39 -85 -58 -52 -53 -783 -1324 -787 -1369
-3 -28 2 -43 17 -58 l21 -21 1013 0 1012 0 51 24 c28 13 66 39 84 57 48 49
381 626 387 670 4 28 1 41 -16 58 -21 21 -27 21 -409 21 l-389 0 -62 -31 c-34
-17 -73 -45 -87 -63 -15 -18 -85 -134 -156 -257 -71 -123 -142 -237 -156 -252
-65 -70 -177 -106 -227 -73 -20 13 -25 25 -25 57 0 35 41 112 292 547 200 348
305 520 333 547 73 72 171 103 221 70 41 -26 30 -87 -34 -199 -63 -110 -71
-139 -44 -175 l19 -26 388 -3 388 -2 52 24 c77 35 110 75 214 254 103 180 117
226 82 261 l-21 21 -1012 0 -1013 0 -51 -24z"/>
</g>
</svg>
